<svg enable-background="new 0 0 40 40" viewBox="0 0 40 40" xmlns="http://www.w3.org/2000/svg"><path d="m22.2 25.2c-.3.7-.8 1.4-1.4 2.1s-1.5 1.1-2.4 1.1c-.7 0-1.1-.2-1.5-.5s-.5-.7-.5-1.2.1-1.1.4-1.9l1.5-4.1c.1-.4.2-.6.2-.8 0-.1 0-.2-.1-.2s-.1-.1-.2-.1c-.3 0-.6.2-.9.6s-.6.8-.7 1.1h-1c.5-1 1.1-1.8 1.8-2.4s1.5-.8 2.2-.8c.5 0 .9.1 1.3.4s.5.6.5 1-.1.9-.3 1.3l-1.8 4.9c-.1.3-.2.6-.2.8 0 .1 0 .2.1.3s.2.1.2.1c.2 0 .5-.1.7-.4s.6-.7.9-1.4h1.2zm.9-11.9c0 .4-.2.8-.5 1.1s-.7.5-1.1.5-.8-.2-1.1-.5-.4-.6-.4-1.1c0-.4.1-.8.4-1.1s.7-.5 1.1-.5c.3 0 .5.1.8.2s.4.3.5.5.3.7.3.9z" fill="#5e5c7c"/><g fill="none"><path d="m20 0c11 0 20 9 20 20 0 11-9 20-20 20-11 0-20-9-20-20 0-11 9-20 20-20z"/><path d="m20 .5c10.8 0 19.5 8.7 19.5 19.5 0 10.8-8.7 19.5-19.5 19.5-10.8 0-19.5-8.7-19.5-19.5 0-10.8 8.7-19.5 19.5-19.5z" stroke="#535271"/></g></svg>