<svg height="45" viewBox="0 0 194 45" width="194" xmlns="http://www.w3.org/2000/svg"><g transform="translate(-30.9 -28.5)"><path d="m75.5 54.9a4.642 4.642 0 0 0 -2-.4c-1.3 0-3.3 1.1-4.7 2.6v15.7h-3.3v-21.2h2.7l.4 2.4c2.9-2.6 4.5-3 6.1-3a5.8 5.8 0 0 1 2.2.6z" fill="#c95263"/><path d="m91.4 72.8-.9-2.1a8.906 8.906 0 0 1 -6.5 2.5 6.3 6.3 0 0 1 -6.5-6.5c0-4.2 2.9-6.7 8.5-6.9l4.3-.1v-1c0-3.6-1.9-4.8-4.6-4.8a8.81 8.81 0 0 0 -5.6 2l-1.3-2.4a12.153 12.153 0 0 1 7.5-2.4c4 0 7.3 1.7 7.3 7.2v6.5c0 6 .2 7.4.4 8.1h-2.6zm-1.1-10.2-4.2.1c-3.8.1-5.3 1.4-5.3 3.8 0 2.2 1.3 3.9 4.1 3.9a7.225 7.225 0 0 0 5.4-2.4z" fill="#c95263"/><path d="m126 72.8v-14c0-2.8-.6-4.8-3.4-4.8-2.9 0-5.1 1.8-6.7 3.3v15.5h-3.3v-13.9c0-2.8-.7-4.9-3.5-4.9-2.9 0-5 1.8-6.7 3.3v15.5h-3.3v-21.2h2.7l.4 2.6c2.8-2.2 5.3-3.1 7.6-3.1a5.189 5.189 0 0 1 5.2 3.5 12.011 12.011 0 0 1 7.8-3.5c3.2 0 6.3 1.6 6.3 6.6v15.1z" fill="#c95263"/><path d="m147.8 72.8-.9-2.1a8.906 8.906 0 0 1 -6.5 2.5 6.3 6.3 0 0 1 -6.5-6.5c0-4.2 2.9-6.7 8.5-6.9l4.3-.1v-1c0-3.6-1.9-4.8-4.6-4.8a8.81 8.81 0 0 0 -5.6 2l-1.3-2.4a12.153 12.153 0 0 1 7.5-2.4c4 0 7.3 1.7 7.3 7.2v6.5c0 6 .2 7.4.4 8.1h-2.6zm-1-10.2-4.2.1c-3.8.1-5.3 1.4-5.3 3.8 0 2.2 1.3 3.9 4.1 3.9a7.225 7.225 0 0 0 5.4-2.4z" fill="#c95263"/><path d="m42.3 45.3s19.8-16.8 47.9-16.8 48.6 17.5 48.6 17.5-22-12.6-48.8-12.6c-25.6 0-47.7 11.9-47.7 11.9" fill="#76777a"/><path d="m38.1 73.5a12.561 12.561 0 0 1 -7.2-2.1l1.5-2.6a9.654 9.654 0 0 0 5.5 1.8c2.2 0 4.7-1 4.7-3.5 0-4.1-6.1-5-9.1-8.3a6.244 6.244 0 0 1 -1.8-4.6c0-3.6 2.8-6.5 7.6-6.5a11.529 11.529 0 0 1 5.8 1.3v3.4a10.56 10.56 0 0 0 -5.6-1.7c-2.3 0-4.3 1-4.3 3.2 0 5.3 11.1 5.2 11.1 12.9.1 4.1-3.5 6.7-8.2 6.7" fill="#c95263"/><path d="m56.2 73.4c-3.2 0-4.6-1.8-4.6-4.4v-14.5h-3.8v-2.8h3.8v-3.5l3.3-1.2v4.7h6.1l-1.2 2.8h-4.8v13.1c0 2.1.6 2.9 2.5 2.4a10.237 10.237 0 0 0 3.5-1.3l1.1 2.6a11.434 11.434 0 0 1 -5.9 2.1" fill="#c95263"/><g fill="#76777a"><path d="m158.4 71.5a4.527 4.527 0 0 0 2.4.7c1.4 0 2.2-.7 2.2-1.8 0-1-.6-1.5-2-2.1-1.7-.6-2.7-1.5-2.7-2.9 0-1.6 1.3-2.8 3.3-2.8a4.352 4.352 0 0 1 2.3.5l-.4 1.1a3.765 3.765 0 0 0 -2-.5c-1.4 0-2 .8-2 1.6 0 1 .6 1.4 2.1 2 1.8.7 2.6 1.5 2.6 3 0 1.6-1.2 3-3.6 3a4.728 4.728 0 0 1 -2.6-.7z"/><path d="m167.7 63.9v1.8h1.9v1h-1.9v4c0 .9.3 1.4 1 1.4a1.719 1.719 0 0 0 .8-.1l.1 1a3.73 3.73 0 0 1 -1.2.2 2.035 2.035 0 0 1 -1.5-.6 2.7 2.7 0 0 1 -.5-1.9v-4.1h-1.2v-1h1.2v-1.4z"/><path d="m177.8 69.3a3.656 3.656 0 1 1 -3.6-3.8 3.468 3.468 0 0 1 3.6 3.8m-5.9.1c0 1.6.9 2.9 2.3 2.9 1.3 0 2.3-1.2 2.3-2.9 0-1.3-.6-2.9-2.2-2.9-1.7 0-2.4 1.5-2.4 2.9"/><path d="m184.8 72.8a4.811 4.811 0 0 1 -2.1.4 3.544 3.544 0 0 1 -3.7-3.8 3.754 3.754 0 0 1 4-3.9 4.49 4.49 0 0 1 1.9.4l-.3 1a2.826 2.826 0 0 0 -1.6-.4 2.808 2.808 0 0 0 0 5.6 3.53 3.53 0 0 0 1.7-.4z"/><path d="m187.7 69.1a5.716 5.716 0 0 1 .7-.8l2.2-2.6h1.6l-2.9 3.1 3.3 4.4h-1.6l-2.6-3.6-.7.8v2.8h-1.3v-11h1.3z"/><path d="m193.9 62.2h1.4v4.6a3.178 3.178 0 0 1 1-1 3.255 3.255 0 0 1 1.4-.4c1 0 2.6.6 2.6 3.2v4.4h-1.4v-4.3c0-1.2-.4-2.2-1.7-2.2a1.832 1.832 0 0 0 -1.8 1.4 1.268 1.268 0 0 0 -.1.6v4.5h-1.4z"/><path d="m209.1 69.3a3.656 3.656 0 1 1 -3.6-3.8 3.468 3.468 0 0 1 3.6 3.8m-5.9.1c0 1.6.9 2.9 2.3 2.9 1.3 0 2.3-1.2 2.3-2.9 0-1.3-.6-2.9-2.2-2.9-1.7 0-2.4 1.5-2.4 2.9"/><path d="m210.8 62.2h1.4v10.9h-1.4z"/><path d="m214.5 67.7a12.122 12.122 0 0 0 -.1-2h1.2l.1 1.2a2.558 2.558 0 0 1 2.3-1.4 2.162 2.162 0 0 1 2.1 1.5 3.915 3.915 0 0 1 .8-1 2.544 2.544 0 0 1 1.6-.5c1 0 2.4.6 2.4 3.2v4.4h-1.3v-4.2c0-1.4-.5-2.3-1.6-2.3a1.742 1.742 0 0 0 -1.6 1.2 1.483 1.483 0 0 0 -.1.7v4.6h-1.3v-4.5c0-1.2-.5-2-1.6-2a1.927 1.927 0 0 0 -1.7 1.4 1.483 1.483 0 0 0 -.1.7v4.5h-1.3v-5.5z"/></g></g></svg>