<svg enable-background="new 0 0 254 104" viewBox="0 0 254 104" xmlns="http://www.w3.org/2000/svg"><path d="m75.5 54.9c-.4-.2-1.1-.4-2-.4-1.3 0-3.3 1.1-4.7 2.6v15.7h-3.3v-21.2h2.7l.4 2.4c2.9-2.6 4.5-3 6.1-3 .9 0 1.7.4 2.2.6z" fill="#c95263"/><path d="m91.4 72.8-.9-2.1c-1.3 1.3-3.4 2.5-6.5 2.5-3.5 0-6.5-2.5-6.5-6.5 0-4.2 2.9-6.7 8.5-6.9l4.3-.1v-1c0-3.6-1.9-4.8-4.6-4.8s-4.4 1.1-5.6 2l-1.3-2.4c2.6-1.8 4.8-2.4 7.5-2.4 4 0 7.3 1.7 7.3 7.2v6.5c0 6 .2 7.4.4 8.1h-2.6zm-1.1-10.2-4.2.1c-3.8.1-5.3 1.4-5.3 3.8 0 2.2 1.3 3.9 4.1 3.9s4.4-1.4 5.4-2.4z" fill="#c95263"/><path d="m126 72.8v-14c0-2.8-.6-4.8-3.4-4.8-2.9 0-5.1 1.8-6.7 3.3v1.2 14.3h-3.3v-13.9c0-2.8-.7-4.9-3.5-4.9-2.9 0-5 1.8-6.7 3.3v15.5h-3.3v-21.2h2.7l.4 2.6c2.8-2.2 5.3-3.1 7.6-3.1 2.6 0 4.5 1.4 5.2 3.5 2.3-2.2 5.3-3.5 7.8-3.5 3.2 0 6.3 1.6 6.3 6.6v15.1z" fill="#c95263"/><path d="m147.8 72.8-.9-2.1c-1.3 1.3-3.4 2.5-6.5 2.5-3.5 0-6.5-2.5-6.5-6.5 0-4.2 2.9-6.7 8.5-6.9l4.3-.1v-1c0-3.6-1.9-4.8-4.6-4.8s-4.4 1.1-5.6 2l-1.3-2.4c2.6-1.8 4.8-2.4 7.5-2.4 4 0 7.3 1.7 7.3 7.2v6.5c0 6 .2 7.4.4 8.1h-2.6zm-1-10.2-4.2.1c-3.8.1-5.3 1.4-5.3 3.8 0 2.2 1.3 3.9 4.1 3.9s4.4-1.4 5.4-2.4z" fill="#c95263"/><path d="m42.3 45.3s19.8-16.8 47.9-16.8 48.6 17.5 48.6 17.5-22-12.6-48.8-12.6c-25.6 0-47.7 11.9-47.7 11.9" fill="#76777a"/><path d="m38.1 73.5c-3.4 0-5.7-1.1-7.2-2.1l1.5-2.6c1.1.8 3.1 1.8 5.5 1.8 2.2 0 4.7-1 4.7-3.5 0-4.1-6.1-5-9.1-8.3-1.1-1.1-1.8-2.6-1.8-4.6 0-3.6 2.8-6.5 7.6-6.5 2.7 0 4.6.6 5.8 1.3v3.4c-1.5-1-3.6-1.7-5.6-1.7-2.3 0-4.3 1-4.3 3.2 0 5.3 11.1 5.2 11.1 12.9.1 4.1-3.5 6.7-8.2 6.7" fill="#c95263"/><path d="m56.2 73.4c-3.2 0-4.6-1.8-4.6-4.4v-14.5h-3.8v-2.8h3.8v-3.5l3.3-1.2v4.7h6.1l-1.2 2.8h-4.8v13.1c0 2.1.6 2.9 2.5 2.4 1.3-.3 2.7-.7 3.5-1.3l1.1 2.6c-1.8 1.2-4 2.1-5.9 2.1" fill="#c95263"/><g fill="#76777a"><path d="m158.4 71.5c.6.4 1.5.7 2.4.7 1.4 0 2.2-.7 2.2-1.8 0-1-.6-1.5-2-2.1-1.7-.6-2.7-1.5-2.7-2.9 0-1.6 1.3-2.8 3.3-2.8 1.1 0 1.8.2 2.3.5l-.4 1.1c-.3-.2-1-.5-2-.5-1.4 0-2 .8-2 1.6 0 1 .6 1.4 2.1 2 1.8.7 2.6 1.5 2.6 3 0 1.6-1.2 3-3.6 3-1 0-2.1-.3-2.6-.7z"/><path d="m167.7 63.9v1.8h1.9v1h-1.9v4c0 .9.3 1.4 1 1.4.4 0 .6 0 .8-.1l.1 1c-.3.1-.7.2-1.2.2-.6 0-1.1-.2-1.5-.6s-.5-1.1-.5-1.9v-4.1h-1.2v-1h1.2v-1.4z"/><path d="m177.8 69.3c0 2.8-1.9 3.9-3.7 3.9-2 0-3.6-1.5-3.6-3.8 0-2.5 1.6-3.9 3.7-3.9 2.2 0 3.6 1.5 3.6 3.8m-5.9.1c0 1.6.9 2.9 2.3 2.9 1.3 0 2.3-1.2 2.3-2.9 0-1.3-.6-2.9-2.2-2.9-1.7 0-2.4 1.5-2.4 2.9"/><path d="m184.8 72.8c-.4.2-1.1.4-2.1.4-2.2 0-3.7-1.5-3.7-3.8s1.6-3.9 4-3.9c.8 0 1.5.2 1.9.4l-.3 1c-.3-.2-.8-.4-1.6-.4-1.7 0-2.6 1.3-2.6 2.8 0 1.7 1.1 2.8 2.6 2.8.8 0 1.3-.2 1.7-.4z"/><path d="m187.7 69.1c.2-.3.5-.6.7-.8l2.2-2.6h1.6l-2.9 3.1 3.3 4.4h-1.6l-2.6-3.6-.7.8v2.8h-1.3v-11h1.3z"/><path d="m193.9 62.2h1.4v4.6c.2-.4.6-.7 1-1 .4-.2.9-.4 1.4-.4 1 0 2.6.6 2.6 3.2v4.4h-1.4v-4.3c0-1.2-.4-2.2-1.7-2.2-.9 0-1.6.6-1.8 1.4-.1.2-.1.4-.1.6v4.5h-1.4z"/><path d="m209.1 69.3c0 2.8-1.9 3.9-3.7 3.9-2 0-3.6-1.5-3.6-3.8 0-2.5 1.6-3.9 3.7-3.9 2.2 0 3.6 1.5 3.6 3.8m-5.9.1c0 1.6.9 2.9 2.3 2.9 1.3 0 2.3-1.2 2.3-2.9 0-1.3-.6-2.9-2.2-2.9-1.7 0-2.4 1.5-2.4 2.9"/><path d="m210.8 62.2h1.4v10.9h-1.4z"/><path d="m214.5 67.7c0-.8 0-1.4-.1-2h1.2l.1 1.2c.4-.7 1.1-1.4 2.3-1.4 1 0 1.8.6 2.1 1.5.2-.4.5-.7.8-1 .4-.3.9-.5 1.6-.5 1 0 2.4.6 2.4 3.2v4.4h-1.3v-4.2c0-1.4-.5-2.3-1.6-2.3-.8 0-1.4.6-1.6 1.2-.1.2-.1.4-.1.7v4.6h-1.3v-4.5c0-1.2-.5-2-1.6-2-.8 0-1.5.7-1.7 1.4-.1.2-.1.4-.1.7v4.5h-1.3v-5.5z"/></g></svg>