<?xml version="1.0" encoding="utf-8"?>
<!-- Generator: Adobe Illustrator 25.2.0, SVG Export Plug-In . SVG Version: 6.00 Build 0)  -->
<svg version="1.1" id="Component_214_27" xmlns="http://www.w3.org/2000/svg" xmlns:xlink="http://www.w3.org/1999/xlink" x="0px"
	 y="0px" viewBox="0 0 40 40" style="enable-background:new 0 0 40 40;" xml:space="preserve">
<style type="text/css">
	.st0{enable-background:new    ;}
	.st1{fill:#FFFFFF;}
	.st2{fill:none;}
	.st3{fill:none;stroke:#FFFFFF;}
</style>
<g class="st0">
	<path class="st1" d="M22.4,24.7c-0.3,0.7-0.8,1.4-1.4,2.1s-1.5,1.1-2.4,1.1c-0.7,0-1.1-0.2-1.5-0.5s-0.5-0.7-0.5-1.2
		c0-0.5,0.1-1.1,0.4-1.9l1.5-4.1c0.1-0.4,0.2-0.6,0.2-0.8c0-0.1,0-0.2-0.1-0.2S18.5,19,18.4,19c-0.3,0-0.6,0.2-0.9,0.6
		s-0.6,0.8-0.7,1.1h-1c0.5-1,1.1-1.8,1.8-2.4s1.5-0.8,2.2-0.8c0.5,0,0.9,0.1,1.3,0.4s0.5,0.6,0.5,1c0,0.4-0.1,0.9-0.3,1.3l-1.8,4.9
		c-0.1,0.3-0.2,0.6-0.2,0.8c0,0.1,0,0.2,0.1,0.3s0.2,0.1,0.2,0.1c0.2,0,0.5-0.1,0.7-0.4s0.6-0.7,0.9-1.4H22.4z M23.3,12.8
		c0,0.4-0.2,0.8-0.5,1.1s-0.7,0.5-1.1,0.5c-0.4,0-0.8-0.2-1.1-0.5s-0.4-0.7-0.4-1.1c0-0.4,0.1-0.8,0.4-1.1s0.7-0.5,1.1-0.5
		c0.3,0,0.5,0.1,0.8,0.2s0.4,0.3,0.5,0.5S23.3,12.5,23.3,12.8z"/>
</g>
<g id="Rectangle_1140">
	<path class="st2" d="M20,0L20,0c11,0,20,9,20,20l0,0c0,11-9,20-20,20l0,0C9,40,0,31,0,20l0,0C0,9,9,0,20,0z"/>
	<path class="st3" d="M20,0.5L20,0.5c10.8,0,19.5,8.7,19.5,19.5l0,0c0,10.8-8.7,19.5-19.5,19.5l0,0C9.2,39.5,0.5,30.8,0.5,20l0,0
		C0.5,9.2,9.2,0.5,20,0.5z"/>
</g>
</svg>
