<svg xmlns="http://www.w3.org/2000/svg" width="194" height="45" viewBox="0 0 194 45">
  <g id="strama-logo" transform="translate(-30.9 -28.5)">
    <path id="Path_42623" data-name="Path 42623" d="M75.5,54.9a4.642,4.642,0,0,0-2-.4c-1.3,0-3.3,1.1-4.7,2.6V72.8H65.5V51.6h2.7l.4,2.4c2.9-2.6,4.5-3,6.1-3a5.8,5.8,0,0,1,2.2.6Z" fill="#c95263"/>
    <path id="Path_42624" data-name="Path 42624" d="M91.4,72.8l-.9-2.1A8.906,8.906,0,0,1,84,73.2a6.3,6.3,0,0,1-6.5-6.5c0-4.2,2.9-6.7,8.5-6.9l4.3-.1v-1c0-3.6-1.9-4.8-4.6-4.8a8.81,8.81,0,0,0-5.6,2l-1.3-2.4a12.153,12.153,0,0,1,7.5-2.4c4,0,7.3,1.7,7.3,7.2v6.5c0,6,.2,7.4.4,8.1H91.4ZM90.3,62.6l-4.2.1c-3.8.1-5.3,1.4-5.3,3.8,0,2.2,1.3,3.9,4.1,3.9A7.225,7.225,0,0,0,90.3,68Z" fill="#c95263"/>
    <path id="Path_42625" data-name="Path 42625" d="M126,72.8v-14c0-2.8-.6-4.8-3.4-4.8-2.9,0-5.1,1.8-6.7,3.3V72.8h-3.3V58.9c0-2.8-.7-4.9-3.5-4.9-2.9,0-5,1.8-6.7,3.3V72.8H99.1V51.6h2.7l.4,2.6c2.8-2.2,5.3-3.1,7.6-3.1a5.189,5.189,0,0,1,5.2,3.5,12.011,12.011,0,0,1,7.8-3.5c3.2,0,6.3,1.6,6.3,6.6V72.8H126Z" fill="#c95263"/>
    <path id="Path_42626" data-name="Path 42626" d="M147.8,72.8l-.9-2.1a8.906,8.906,0,0,1-6.5,2.5,6.3,6.3,0,0,1-6.5-6.5c0-4.2,2.9-6.7,8.5-6.9l4.3-.1v-1c0-3.6-1.9-4.8-4.6-4.8a8.81,8.81,0,0,0-5.6,2l-1.3-2.4a12.153,12.153,0,0,1,7.5-2.4c4,0,7.3,1.7,7.3,7.2v6.5c0,6,.2,7.4.4,8.1h-2.6Zm-1-10.2-4.2.1c-3.8.1-5.3,1.4-5.3,3.8,0,2.2,1.3,3.9,4.1,3.9a7.225,7.225,0,0,0,5.4-2.4Z" fill="#c95263"/>
    <path id="Path_42627" data-name="Path 42627" d="M42.3,45.3S62.1,28.5,90.2,28.5,138.8,46,138.8,46,116.8,33.4,90,33.4c-25.6,0-47.7,11.9-47.7,11.9" fill="#76777a"/>
    <path id="Path_42628" data-name="Path 42628" d="M38.1,73.5a12.561,12.561,0,0,1-7.2-2.1l1.5-2.6a9.654,9.654,0,0,0,5.5,1.8c2.2,0,4.7-1,4.7-3.5,0-4.1-6.1-5-9.1-8.3a6.244,6.244,0,0,1-1.8-4.6c0-3.6,2.8-6.5,7.6-6.5A11.529,11.529,0,0,1,45.1,49v3.4a10.56,10.56,0,0,0-5.6-1.7c-2.3,0-4.3,1-4.3,3.2,0,5.3,11.1,5.2,11.1,12.9.1,4.1-3.5,6.7-8.2,6.7" fill="#c95263"/>
    <path id="Path_42629" data-name="Path 42629" d="M56.2,73.4c-3.2,0-4.6-1.8-4.6-4.4V54.5H47.8V51.7h3.8V48.2L54.9,47v4.7H61l-1.2,2.8H55V67.6c0,2.1.6,2.9,2.5,2.4A10.237,10.237,0,0,0,61,68.7l1.1,2.6a11.434,11.434,0,0,1-5.9,2.1" fill="#c95263"/>
    <path id="Path_42630" data-name="Path 42630" d="M158.4,71.5a4.527,4.527,0,0,0,2.4.7c1.4,0,2.2-.7,2.2-1.8,0-1-.6-1.5-2-2.1-1.7-.6-2.7-1.5-2.7-2.9,0-1.6,1.3-2.8,3.3-2.8a4.352,4.352,0,0,1,2.3.5l-.4,1.1a3.765,3.765,0,0,0-2-.5c-1.4,0-2,.8-2,1.6,0,1,.6,1.4,2.1,2,1.8.7,2.6,1.5,2.6,3,0,1.6-1.2,3-3.6,3a4.728,4.728,0,0,1-2.6-.7Z" fill="#76777a"/>
    <path id="Path_42631" data-name="Path 42631" d="M167.7,63.9v1.8h1.9v1h-1.9v4c0,.9.3,1.4,1,1.4a1.719,1.719,0,0,0,.8-.1l.1,1a3.73,3.73,0,0,1-1.2.2,2.035,2.035,0,0,1-1.5-.6,2.7,2.7,0,0,1-.5-1.9V66.6h-1.2v-1h1.2V64.2Z" fill="#76777a"/>
    <path id="Path_42632" data-name="Path 42632" d="M177.8,69.3a3.656,3.656,0,1,1-3.6-3.8,3.468,3.468,0,0,1,3.6,3.8m-5.9.1c0,1.6.9,2.9,2.3,2.9,1.3,0,2.3-1.2,2.3-2.9,0-1.3-.6-2.9-2.2-2.9-1.7,0-2.4,1.5-2.4,2.9" fill="#76777a"/>
    <path id="Path_42633" data-name="Path 42633" d="M184.8,72.8a4.811,4.811,0,0,1-2.1.4,3.544,3.544,0,0,1-3.7-3.8,3.754,3.754,0,0,1,4-3.9,4.49,4.49,0,0,1,1.9.4l-.3,1a2.826,2.826,0,0,0-1.6-.4,2.808,2.808,0,0,0,0,5.6,3.53,3.53,0,0,0,1.7-.4Z" fill="#76777a"/>
    <path id="Path_42634" data-name="Path 42634" d="M187.7,69.1h0a5.716,5.716,0,0,1,.7-.8l2.2-2.6h1.6l-2.9,3.1,3.3,4.4H191l-2.6-3.6-.7.8v2.8h-1.3v-11h1.3Z" fill="#76777a"/>
    <path id="Path_42635" data-name="Path 42635" d="M193.9,62.2h1.4v4.6h0a3.178,3.178,0,0,1,1-1,3.255,3.255,0,0,1,1.4-.4c1,0,2.6.6,2.6,3.2V73h-1.4V68.7c0-1.2-.4-2.2-1.7-2.2a1.832,1.832,0,0,0-1.8,1.4,1.268,1.268,0,0,0-.1.6V73h-1.4Z" fill="#76777a"/>
    <path id="Path_42636" data-name="Path 42636" d="M209.1,69.3a3.656,3.656,0,1,1-3.6-3.8,3.468,3.468,0,0,1,3.6,3.8m-5.9.1c0,1.6.9,2.9,2.3,2.9,1.3,0,2.3-1.2,2.3-2.9,0-1.3-.6-2.9-2.2-2.9-1.7,0-2.4,1.5-2.4,2.9" fill="#76777a"/>
    <rect id="Rectangle_1980" data-name="Rectangle 1980" width="1.4" height="10.9" transform="translate(210.8 62.2)" fill="#76777a"/>
    <path id="Path_42637" data-name="Path 42637" d="M214.5,67.7a12.122,12.122,0,0,0-.1-2h1.2l.1,1.2h0a2.558,2.558,0,0,1,2.3-1.4,2.162,2.162,0,0,1,2.1,1.5h0a3.915,3.915,0,0,1,.8-1,2.544,2.544,0,0,1,1.6-.5c1,0,2.4.6,2.4,3.2v4.4h-1.3V68.9c0-1.4-.5-2.3-1.6-2.3a1.742,1.742,0,0,0-1.6,1.2,1.483,1.483,0,0,0-.1.7v4.6H219V68.6c0-1.2-.5-2-1.6-2a1.927,1.927,0,0,0-1.7,1.4,1.483,1.483,0,0,0-.1.7v4.5h-1.3V67.7Z" fill="#76777a"/>
  </g>
</svg>
