<?xml version="1.0" encoding="utf-8"?>
<!-- Generator: Adobe Illustrator 25.2.3, SVG Export Plug-In . SVG Version: 6.00 Build 0)  -->
<svg version="1.1" id="Lager_1" xmlns="http://www.w3.org/2000/svg" xmlns:xlink="http://www.w3.org/1999/xlink" x="0px" y="0px"
	 viewBox="0 0 254 104" style="enable-background:new 0 0 254 104;" xml:space="preserve">
<style type="text/css">
	.st0{fill:#C95263;}
	.st1{fill:#76777A;}
</style>
<g>
	<path class="st0" d="M75.5,54.9c-0.4-0.2-1.1-0.4-2-0.4c-1.3,0-3.3,1.1-4.7,2.6v15.7h-3.3V51.6h2.7l0.4,2.4c2.9-2.6,4.5-3,6.1-3
		c0.9,0,1.7,0.4,2.2,0.6L75.5,54.9z"/>
	<path class="st0" d="M91.4,72.8l-0.9-2.1c-1.3,1.3-3.4,2.5-6.5,2.5c-3.5,0-6.5-2.5-6.5-6.5c0-4.2,2.9-6.7,8.5-6.9l4.3-0.1v-1
		c0-3.6-1.9-4.8-4.6-4.8c-2.7,0-4.4,1.1-5.6,2l-1.3-2.4c2.6-1.8,4.8-2.4,7.5-2.4c4,0,7.3,1.7,7.3,7.2v6.5c0,6,0.2,7.4,0.4,8.1H91.4z
		 M90.3,62.6l-4.2,0.1c-3.8,0.1-5.3,1.4-5.3,3.8c0,2.2,1.3,3.9,4.1,3.9s4.4-1.4,5.4-2.4V62.6z"/>
	<path class="st0" d="M126,72.8v-14c0-2.8-0.6-4.8-3.4-4.8c-2.9,0-5.1,1.8-6.7,3.3c0,0.4,0,0.8,0,1.2v14.3h-3.3V58.9
		c0-2.8-0.7-4.9-3.5-4.9c-2.9,0-5,1.8-6.7,3.3v15.5h-3.3V51.6h2.7l0.4,2.6c2.8-2.2,5.3-3.1,7.6-3.1c2.6,0,4.5,1.4,5.2,3.5
		c2.3-2.2,5.3-3.5,7.8-3.5c3.2,0,6.3,1.6,6.3,6.6v15.1H126z"/>
	<path class="st0" d="M147.8,72.8l-0.9-2.1c-1.3,1.3-3.4,2.5-6.5,2.5c-3.5,0-6.5-2.5-6.5-6.5c0-4.2,2.9-6.7,8.5-6.9l4.3-0.1v-1
		c0-3.6-1.9-4.8-4.6-4.8c-2.7,0-4.4,1.1-5.6,2l-1.3-2.4c2.6-1.8,4.8-2.4,7.5-2.4c4,0,7.3,1.7,7.3,7.2v6.5c0,6,0.2,7.4,0.4,8.1H147.8
		z M146.8,62.6l-4.2,0.1c-3.8,0.1-5.3,1.4-5.3,3.8c0,2.2,1.3,3.9,4.1,3.9c2.8,0,4.4-1.4,5.4-2.4V62.6z"/>
	<path class="st1" d="M42.3,45.3c0,0,19.8-16.8,47.9-16.8c28.1,0,48.6,17.5,48.6,17.5s-22-12.6-48.8-12.6
		C64.4,33.4,42.3,45.3,42.3,45.3"/>
	<path class="st0" d="M38.1,73.5c-3.4,0-5.7-1.1-7.2-2.1l1.5-2.6c1.1,0.8,3.1,1.8,5.5,1.8c2.2,0,4.7-1,4.7-3.5c0-4.1-6.1-5-9.1-8.3
		c-1.1-1.1-1.8-2.6-1.8-4.6c0-3.6,2.8-6.5,7.6-6.5c2.7,0,4.6,0.6,5.8,1.3l0,3.4c-1.5-1-3.6-1.7-5.6-1.7c-2.3,0-4.3,1-4.3,3.2
		c0,5.3,11.1,5.2,11.1,12.9C46.4,70.9,42.8,73.5,38.1,73.5"/>
	<path class="st0" d="M56.2,73.4c-3.2,0-4.6-1.8-4.6-4.4V54.5h-3.8v-2.8h3.8v-3.5l3.3-1.2v4.7H61l-1.2,2.8h-4.8v13.1
		c0,2.1,0.6,2.9,2.5,2.4c1.3-0.3,2.7-0.7,3.5-1.3l1.1,2.6C60.3,72.5,58.1,73.4,56.2,73.4"/>
	<path class="st1" d="M158.4,71.5c0.6,0.4,1.5,0.7,2.4,0.7c1.4,0,2.2-0.7,2.2-1.8c0-1-0.6-1.5-2-2.1c-1.7-0.6-2.7-1.5-2.7-2.9
		c0-1.6,1.3-2.8,3.3-2.8c1.1,0,1.8,0.2,2.3,0.5l-0.4,1.1c-0.3-0.2-1-0.5-2-0.5c-1.4,0-2,0.8-2,1.6c0,1,0.6,1.4,2.1,2
		c1.8,0.7,2.6,1.5,2.6,3c0,1.6-1.2,3-3.6,3c-1,0-2.1-0.3-2.6-0.7L158.4,71.5z"/>
	<path class="st1" d="M167.7,63.9v1.8h1.9v1h-1.9v4c0,0.9,0.3,1.4,1,1.4c0.4,0,0.6,0,0.8-0.1l0.1,1c-0.3,0.1-0.7,0.2-1.2,0.2
		c-0.6,0-1.1-0.2-1.5-0.6c-0.4-0.4-0.5-1.1-0.5-1.9v-4.1h-1.2v-1h1.2v-1.4L167.7,63.9z"/>
	<path class="st1" d="M177.8,69.3c0,2.8-1.9,3.9-3.7,3.9c-2,0-3.6-1.5-3.6-3.8c0-2.5,1.6-3.9,3.7-3.9
		C176.4,65.5,177.8,67,177.8,69.3 M171.9,69.4c0,1.6,0.9,2.9,2.3,2.9c1.3,0,2.3-1.2,2.3-2.9c0-1.3-0.6-2.9-2.2-2.9
		C172.6,66.5,171.9,68,171.9,69.4"/>
	<path class="st1" d="M184.8,72.8c-0.4,0.2-1.1,0.4-2.1,0.4c-2.2,0-3.7-1.5-3.7-3.8c0-2.3,1.6-3.9,4-3.9c0.8,0,1.5,0.2,1.9,0.4
		l-0.3,1c-0.3-0.2-0.8-0.4-1.6-0.4c-1.7,0-2.6,1.3-2.6,2.8c0,1.7,1.1,2.8,2.6,2.8c0.8,0,1.3-0.2,1.7-0.4L184.8,72.8z"/>
	<path class="st1" d="M187.7,69.1L187.7,69.1c0.2-0.3,0.5-0.6,0.7-0.8l2.2-2.6h1.6l-2.9,3.1l3.3,4.4H191l-2.6-3.6l-0.7,0.8v2.8h-1.3
		V62.2h1.3V69.1z"/>
	<path class="st1" d="M193.9,62.2h1.4v4.6h0c0.2-0.4,0.6-0.7,1-1c0.4-0.2,0.9-0.4,1.4-0.4c1,0,2.6,0.6,2.6,3.2v4.4h-1.4v-4.3
		c0-1.2-0.4-2.2-1.7-2.2c-0.9,0-1.6,0.6-1.8,1.4c-0.1,0.2-0.1,0.4-0.1,0.6v4.5h-1.4V62.2z"/>
	<path class="st1" d="M209.1,69.3c0,2.8-1.9,3.9-3.7,3.9c-2,0-3.6-1.5-3.6-3.8c0-2.5,1.6-3.9,3.7-3.9
		C207.7,65.5,209.1,67,209.1,69.3 M203.2,69.4c0,1.6,0.9,2.9,2.3,2.9c1.3,0,2.3-1.2,2.3-2.9c0-1.3-0.6-2.9-2.2-2.9
		C203.9,66.5,203.2,68,203.2,69.4"/>
	<rect x="210.8" y="62.2" class="st1" width="1.4" height="10.9"/>
	<path class="st1" d="M214.5,67.7c0-0.8,0-1.4-0.1-2h1.2l0.1,1.2h0c0.4-0.7,1.1-1.4,2.3-1.4c1,0,1.8,0.6,2.1,1.5h0
		c0.2-0.4,0.5-0.7,0.8-1c0.4-0.3,0.9-0.5,1.6-0.5c1,0,2.4,0.6,2.4,3.2v4.4h-1.3v-4.2c0-1.4-0.5-2.3-1.6-2.3c-0.8,0-1.4,0.6-1.6,1.2
		c-0.1,0.2-0.1,0.4-0.1,0.7v4.6h-1.3v-4.5c0-1.2-0.5-2-1.6-2c-0.8,0-1.5,0.7-1.7,1.4c-0.1,0.2-0.1,0.4-0.1,0.7v4.5h-1.3V67.7z"/>
</g>
</svg>
